<?xml version="1.0" encoding="UTF-8"?>
<svg xmlns="http://www.w3.org/2000/svg" xmlns:xlink="http://www.w3.org/1999/xlink" width="36px" height="36px" viewBox="0 0 36 36" version="1.1">
<g id="surface1">
<path style=" stroke:none;fill-rule:nonzero;fill:rgb(99.607843%,99.607843%,99.607843%);fill-opacity:1;" d="M 7.878906 2.800781 C 7.996094 2.800781 7.996094 2.800781 8.117188 2.800781 C 8.382812 2.800781 8.644531 2.800781 8.910156 2.800781 C 9.097656 2.800781 9.285156 2.800781 9.476562 2.796875 C 10.042969 2.796875 10.609375 2.796875 11.175781 2.796875 C 11.445312 2.796875 11.710938 2.796875 11.976562 2.792969 C 12.867188 2.792969 13.753906 2.792969 14.644531 2.792969 C 14.875 2.792969 15.101562 2.792969 15.332031 2.792969 C 15.390625 2.792969 15.449219 2.792969 15.507812 2.792969 C 16.433594 2.792969 17.363281 2.789062 18.289062 2.785156 C 19.242188 2.785156 20.195312 2.785156 21.148438 2.78125 C 21.683594 2.78125 22.21875 2.78125 22.753906 2.78125 C 23.207031 2.777344 23.664062 2.777344 24.117188 2.777344 C 24.351562 2.78125 24.582031 2.777344 24.816406 2.777344 C 25.066406 2.777344 25.320312 2.777344 25.570312 2.777344 C 25.644531 2.777344 25.71875 2.777344 25.792969 2.777344 C 26.277344 2.78125 26.664062 2.859375 27.035156 3.1875 C 27.265625 3.4375 27.347656 3.675781 27.417969 4 C 27.429688 4.050781 27.4375 4.101562 27.449219 4.152344 C 27.488281 4.339844 27.527344 4.523438 27.5625 4.710938 C 27.578125 4.785156 27.589844 4.859375 27.605469 4.9375 C 27.726562 5.550781 27.839844 6.164062 27.953125 6.78125 C 28.003906 7.0625 28.054688 7.34375 28.109375 7.625 C 28.199219 8.109375 28.289062 8.597656 28.378906 9.085938 C 28.523438 9.859375 28.664062 10.636719 28.808594 11.410156 C 28.859375 11.679688 28.910156 11.949219 28.957031 12.214844 C 28.96875 12.28125 28.984375 12.351562 28.996094 12.417969 C 29.085938 12.902344 29.175781 13.386719 29.265625 13.871094 C 29.792969 16.71875 30.320312 19.566406 30.847656 22.414062 C 31.007812 23.257812 31.164062 24.097656 31.320312 24.9375 C 31.390625 25.335938 31.464844 25.734375 31.539062 26.132812 C 31.609375 26.5 31.675781 26.867188 31.746094 27.230469 C 31.777344 27.402344 31.808594 27.570312 31.839844 27.742188 C 31.878906 27.957031 31.917969 28.171875 31.960938 28.390625 C 32.046875 28.859375 32.132812 29.332031 32.226562 29.800781 C 32.265625 30.007812 32.304688 30.214844 32.347656 30.421875 C 32.363281 30.519531 32.382812 30.613281 32.402344 30.710938 C 32.675781 32.085938 32.675781 32.085938 32.367188 32.636719 C 32.121094 32.976562 31.824219 33.195312 31.429688 33.328125 C 31.21875 33.347656 31.21875 33.347656 30.984375 33.347656 C 30.898438 33.347656 30.808594 33.351562 30.71875 33.351562 C 30.621094 33.351562 30.527344 33.351562 30.429688 33.351562 C 30.332031 33.351562 30.234375 33.351562 30.132812 33.351562 C 29.925781 33.355469 29.71875 33.355469 29.511719 33.355469 C 29.246094 33.355469 28.980469 33.355469 28.71875 33.359375 C 28.511719 33.359375 28.308594 33.359375 28.105469 33.359375 C 28.007812 33.359375 27.910156 33.359375 27.8125 33.363281 C 27.136719 33.367188 26.675781 33.339844 26.167969 32.859375 C 25.84375 32.367188 25.753906 31.789062 25.652344 31.21875 C 25.636719 31.140625 25.625 31.066406 25.609375 30.988281 C 25.566406 30.746094 25.519531 30.5 25.476562 30.253906 C 25.445312 30.082031 25.414062 29.910156 25.382812 29.742188 C 25.300781 29.292969 25.21875 28.84375 25.136719 28.394531 C 25.039062 27.855469 24.941406 27.320312 24.84375 26.78125 C 24.695312 25.960938 24.546875 25.144531 24.398438 24.328125 C 23.167969 24.304688 21.9375 24.28125 20.671875 24.257812 C 20.625 24.558594 20.578125 24.859375 20.53125 25.171875 C 20.488281 25.421875 20.441406 25.667969 20.398438 25.917969 C 20.382812 25.984375 20.371094 26.054688 20.359375 26.125 C 20.316406 26.347656 20.277344 26.570312 20.234375 26.792969 C 20.222656 26.867188 20.207031 26.945312 20.191406 27.023438 C 20.117188 27.429688 20.042969 27.835938 19.964844 28.238281 C 19.902344 28.574219 19.839844 28.90625 19.78125 29.242188 C 19.703125 29.648438 19.628906 30.054688 19.554688 30.457031 C 19.523438 30.613281 19.496094 30.765625 19.46875 30.917969 C 19.429688 31.132812 19.386719 31.347656 19.347656 31.5625 C 19.332031 31.660156 19.332031 31.660156 19.3125 31.753906 C 19.222656 32.234375 19.097656 32.71875 18.746094 33.078125 C 18.285156 33.351562 17.851562 33.347656 17.324219 33.347656 C 17.242188 33.347656 17.160156 33.347656 17.078125 33.351562 C 16.808594 33.351562 16.539062 33.351562 16.265625 33.351562 C 16.125 33.351562 15.984375 33.351562 15.84375 33.351562 C 15.402344 33.355469 14.957031 33.355469 14.511719 33.355469 C 14.058594 33.355469 13.605469 33.355469 13.148438 33.359375 C 12.757812 33.359375 12.363281 33.359375 11.972656 33.359375 C 11.738281 33.359375 11.503906 33.359375 11.273438 33.363281 C 9.917969 33.371094 8.691406 33.304688 7.453125 32.695312 C 7.339844 32.640625 7.339844 32.640625 7.222656 32.582031 C 5.566406 31.734375 4.367188 30.296875 3.792969 28.539062 C 3.566406 27.832031 3.503906 27.199219 3.5 26.457031 C 3.5 26.371094 3.496094 26.285156 3.496094 26.199219 C 3.496094 26.015625 3.496094 25.835938 3.496094 25.65625 C 3.492188 25.46875 3.492188 25.285156 3.492188 25.101562 C 3.488281 24.832031 3.488281 24.566406 3.484375 24.300781 C 3.484375 24.21875 3.484375 24.132812 3.480469 24.050781 C 3.484375 23.507812 3.539062 23.25 3.925781 22.863281 C 4.253906 22.6875 4.65625 22.703125 5.023438 22.699219 C 5.109375 22.699219 5.195312 22.699219 5.285156 22.699219 C 5.378906 22.699219 5.46875 22.699219 5.566406 22.699219 C 5.664062 22.699219 5.757812 22.699219 5.855469 22.699219 C 6.058594 22.699219 6.261719 22.699219 6.464844 22.699219 C 6.722656 22.699219 6.980469 22.695312 7.242188 22.695312 C 7.441406 22.695312 7.640625 22.695312 7.84375 22.695312 C 7.984375 22.695312 8.125 22.695312 8.265625 22.691406 C 9.433594 22.695312 9.433594 22.695312 9.839844 23.015625 C 10.144531 23.410156 10.148438 23.765625 10.152344 24.246094 C 10.152344 24.3125 10.152344 24.378906 10.15625 24.449219 C 10.160156 24.660156 10.160156 24.871094 10.164062 25.082031 C 10.167969 25.296875 10.171875 25.507812 10.175781 25.722656 C 10.175781 25.855469 10.179688 25.984375 10.179688 26.117188 C 10.15625 26.40625 10.15625 26.40625 10.265625 26.648438 C 10.472656 26.65625 10.679688 26.660156 10.886719 26.65625 C 10.949219 26.65625 11.007812 26.65625 11.074219 26.65625 C 11.207031 26.65625 11.335938 26.65625 11.46875 26.65625 C 11.671875 26.65625 11.875 26.65625 12.074219 26.65625 C 12.203125 26.65625 12.332031 26.65625 12.457031 26.65625 C 12.550781 26.65625 12.550781 26.65625 12.644531 26.660156 C 12.917969 26.683594 12.917969 26.683594 13.148438 26.578125 C 13.15625 26.359375 13.160156 26.140625 13.160156 25.921875 C 13.160156 25.851562 13.160156 25.78125 13.160156 25.710938 C 13.160156 25.472656 13.164062 25.238281 13.164062 25 C 13.164062 24.832031 13.164062 24.664062 13.164062 24.496094 C 13.167969 24.132812 13.167969 23.769531 13.167969 23.40625 C 13.171875 22.882812 13.171875 22.355469 13.175781 21.832031 C 13.179688 20.976562 13.179688 20.125 13.183594 19.273438 C 13.1875 18.445312 13.191406 17.617188 13.191406 16.789062 C 13.191406 16.710938 13.191406 16.710938 13.191406 16.632812 C 13.195312 16.378906 13.195312 16.121094 13.195312 15.867188 C 13.203125 13.742188 13.210938 11.617188 13.21875 9.492188 C 13.140625 9.492188 13.0625 9.492188 12.984375 9.492188 C 12.257812 9.496094 11.527344 9.5 10.800781 9.503906 C 10.425781 9.503906 10.050781 9.503906 9.675781 9.507812 C 9.316406 9.511719 8.953125 9.511719 8.59375 9.511719 C 8.453125 9.511719 8.316406 9.511719 8.179688 9.515625 C 7.984375 9.515625 7.792969 9.515625 7.597656 9.515625 C 7.542969 9.515625 7.484375 9.519531 7.429688 9.519531 C 6.972656 9.515625 6.5625 9.445312 6.226562 9.109375 C 6.035156 8.796875 6.039062 8.527344 6.035156 8.167969 C 6.035156 8.09375 6.035156 8.09375 6.03125 8.023438 C 6.03125 7.863281 6.03125 7.707031 6.03125 7.546875 C 6.03125 7.496094 6.03125 7.441406 6.027344 7.382812 C 6.027344 7.097656 6.027344 6.8125 6.027344 6.523438 C 6.023438 6.230469 6.023438 5.933594 6.019531 5.640625 C 6.019531 5.414062 6.019531 5.183594 6.015625 4.957031 C 6.015625 4.847656 6.015625 4.742188 6.015625 4.632812 C 6.003906 3.570312 6.003906 3.570312 6.328125 3.09375 C 6.765625 2.738281 7.347656 2.800781 7.878906 2.800781 Z M 22.5 14.273438 C 22.417969 14.6875 22.339844 15.097656 22.257812 15.511719 C 22.234375 15.652344 22.207031 15.792969 22.179688 15.933594 C 22.136719 16.136719 22.097656 16.335938 22.0625 16.539062 C 22.046875 16.601562 22.035156 16.664062 22.023438 16.726562 C 22.011719 16.789062 22 16.847656 21.988281 16.90625 C 21.972656 16.984375 21.972656 16.984375 21.957031 17.0625 C 21.933594 17.257812 21.9375 17.453125 21.9375 17.648438 C 22.332031 17.648438 22.726562 17.648438 23.132812 17.648438 C 23.082031 16.945312 22.941406 16.257812 22.8125 15.566406 C 22.789062 15.441406 22.765625 15.3125 22.742188 15.1875 C 22.683594 14.882812 22.628906 14.578125 22.570312 14.273438 C 22.546875 14.273438 22.523438 14.273438 22.5 14.273438 Z M 22.5 14.273438 "/>
</g>
</svg>
